<mxfile host="app.diagrams.net" modified="2021-03-22T11:41:32.873Z" agent="5.0 (Windows NT 10.0; Win64; x64) AppleWebKit/537.36 (KHTML, like Gecko) Chrome/89.0.4389.90 Safari/537.36" etag="5epWhhdIFSdE7Zuse4Ig" version="14.4.9" type="github">
  <diagram id="EhRALEBXOWKKHzIE7AUR" name="Page-1">
    <mxGraphModel dx="1422" dy="800" grid="1" gridSize="10" guides="1" tooltips="1" connect="1" arrows="1" fold="1" page="1" pageScale="1" pageWidth="3300" pageHeight="4681" math="0" shadow="0">
      <root>
        <mxCell id="0" />
        <mxCell id="1" parent="0" />
        <mxCell id="8SB553p6FnkNuPPM9cX--16" style="edgeStyle=orthogonalEdgeStyle;rounded=0;orthogonalLoop=1;jettySize=auto;html=1;entryX=0;entryY=0.5;entryDx=0;entryDy=0;" edge="1" parent="1" source="8SB553p6FnkNuPPM9cX--1" target="8SB553p6FnkNuPPM9cX--6">
          <mxGeometry relative="1" as="geometry">
            <mxPoint x="560" y="570" as="targetPoint" />
            <Array as="points">
              <mxPoint x="560" y="250" />
              <mxPoint x="560" y="570" />
            </Array>
          </mxGeometry>
        </mxCell>
        <mxCell id="8SB553p6FnkNuPPM9cX--1" value="&lt;font style=&quot;font-size: 15px&quot;&gt;go to (5)&lt;/font&gt;" style="rounded=0;whiteSpace=wrap;html=1;" vertex="1" parent="1">
          <mxGeometry x="630" y="220" width="160" height="60" as="geometry" />
        </mxCell>
        <mxCell id="8SB553p6FnkNuPPM9cX--2" value="" style="edgeStyle=orthogonalEdgeStyle;rounded=0;orthogonalLoop=1;jettySize=auto;html=1;" edge="1" parent="1" source="8SB553p6FnkNuPPM9cX--3" target="8SB553p6FnkNuPPM9cX--1">
          <mxGeometry relative="1" as="geometry" />
        </mxCell>
        <mxCell id="8SB553p6FnkNuPPM9cX--12" style="edgeStyle=orthogonalEdgeStyle;rounded=0;orthogonalLoop=1;jettySize=auto;html=1;entryX=1;entryY=0.5;entryDx=0;entryDy=0;" edge="1" parent="1" source="8SB553p6FnkNuPPM9cX--3" target="8SB553p6FnkNuPPM9cX--5">
          <mxGeometry relative="1" as="geometry">
            <mxPoint x="840" y="360" as="targetPoint" />
            <Array as="points">
              <mxPoint x="840" y="140" />
              <mxPoint x="840" y="360" />
            </Array>
          </mxGeometry>
        </mxCell>
        <mxCell id="8SB553p6FnkNuPPM9cX--3" value="&lt;font style=&quot;font-size: 15px&quot;&gt;a&amp;gt;1?&lt;/font&gt;" style="rhombus;whiteSpace=wrap;html=1;" vertex="1" parent="1">
          <mxGeometry x="630" y="100" width="160" height="80" as="geometry" />
        </mxCell>
        <mxCell id="8SB553p6FnkNuPPM9cX--15" value="" style="edgeStyle=orthogonalEdgeStyle;rounded=0;orthogonalLoop=1;jettySize=auto;html=1;" edge="1" parent="1" source="8SB553p6FnkNuPPM9cX--4" target="8SB553p6FnkNuPPM9cX--6">
          <mxGeometry relative="1" as="geometry" />
        </mxCell>
        <mxCell id="8SB553p6FnkNuPPM9cX--4" value="&lt;font style=&quot;font-size: 15px&quot;&gt;b=t1&lt;/font&gt;" style="rounded=0;whiteSpace=wrap;html=1;" vertex="1" parent="1">
          <mxGeometry x="630" y="440" width="160" height="60" as="geometry" />
        </mxCell>
        <mxCell id="8SB553p6FnkNuPPM9cX--14" style="edgeStyle=orthogonalEdgeStyle;rounded=0;orthogonalLoop=1;jettySize=auto;html=1;entryX=0.5;entryY=0;entryDx=0;entryDy=0;" edge="1" parent="1" source="8SB553p6FnkNuPPM9cX--5" target="8SB553p6FnkNuPPM9cX--4">
          <mxGeometry relative="1" as="geometry" />
        </mxCell>
        <mxCell id="8SB553p6FnkNuPPM9cX--5" value="&lt;font style=&quot;font-size: 15px&quot;&gt;t1=a*2&lt;/font&gt;" style="rounded=0;whiteSpace=wrap;html=1;" vertex="1" parent="1">
          <mxGeometry x="630" y="330" width="160" height="60" as="geometry" />
        </mxCell>
        <mxCell id="8SB553p6FnkNuPPM9cX--6" value="&lt;font style=&quot;font-size: 15px&quot;&gt;a=0&lt;/font&gt;" style="rounded=0;whiteSpace=wrap;html=1;" vertex="1" parent="1">
          <mxGeometry x="630" y="540" width="160" height="60" as="geometry" />
        </mxCell>
        <mxCell id="8SB553p6FnkNuPPM9cX--7" value="" style="rounded=0;whiteSpace=wrap;html=1;" vertex="1" parent="1">
          <mxGeometry x="10" width="160" height="60" as="geometry" />
        </mxCell>
        <mxCell id="8SB553p6FnkNuPPM9cX--8" value="" style="rhombus;whiteSpace=wrap;html=1;" vertex="1" parent="1">
          <mxGeometry y="100" width="160" height="80" as="geometry" />
        </mxCell>
        <mxCell id="8SB553p6FnkNuPPM9cX--10" value="No" style="text;html=1;align=center;verticalAlign=middle;resizable=0;points=[];autosize=1;" vertex="1" parent="1">
          <mxGeometry x="725" y="180" width="30" height="20" as="geometry" />
        </mxCell>
        <mxCell id="8SB553p6FnkNuPPM9cX--13" value="Yes" style="text;html=1;align=center;verticalAlign=middle;resizable=0;points=[];autosize=1;" vertex="1" parent="1">
          <mxGeometry x="840" y="240" width="40" height="20" as="geometry" />
        </mxCell>
        <mxCell id="8SB553p6FnkNuPPM9cX--18" value="(1)" style="text;html=1;align=center;verticalAlign=middle;resizable=0;points=[];autosize=1;" vertex="1" parent="1">
          <mxGeometry x="595" y="130" width="30" height="20" as="geometry" />
        </mxCell>
        <mxCell id="8SB553p6FnkNuPPM9cX--19" value="(2)" style="text;html=1;align=center;verticalAlign=middle;resizable=0;points=[];autosize=1;" vertex="1" parent="1">
          <mxGeometry x="595" y="220" width="30" height="20" as="geometry" />
        </mxCell>
        <mxCell id="8SB553p6FnkNuPPM9cX--20" value="(4)" style="text;html=1;align=center;verticalAlign=middle;resizable=0;points=[];autosize=1;" vertex="1" parent="1">
          <mxGeometry x="595" y="460" width="30" height="20" as="geometry" />
        </mxCell>
        <mxCell id="8SB553p6FnkNuPPM9cX--21" value="(3)" style="text;html=1;align=center;verticalAlign=middle;resizable=0;points=[];autosize=1;" vertex="1" parent="1">
          <mxGeometry x="595" y="350" width="30" height="20" as="geometry" />
        </mxCell>
        <mxCell id="8SB553p6FnkNuPPM9cX--22" value="(5)" style="text;html=1;align=center;verticalAlign=middle;resizable=0;points=[];autosize=1;" vertex="1" parent="1">
          <mxGeometry x="595" y="540" width="30" height="20" as="geometry" />
        </mxCell>
      </root>
    </mxGraphModel>
  </diagram>
</mxfile>
